<svg xmlns="http://www.w3.org/2000/svg" viewBox="0 0 800 200" width="800" height="200">
  <defs>
    <linearGradient id="banner-gradient" x1="0%" y1="0%" x2="100%" y2="100%">
      <stop offset="0%" style="stop-color:#8B5CF6"/>
      <stop offset="50%" style="stop-color:#6366F1"/>
      <stop offset="100%" style="stop-color:#3B82F6"/>
    </linearGradient>
    <linearGradient id="bg-gradient" x1="0%" y1="0%" x2="100%" y2="100%">
      <stop offset="0%" style="stop-color:#0f0f1a"/>
      <stop offset="100%" style="stop-color:#1a1a2e"/>
    </linearGradient>
  </defs>

  <!-- Background -->
  <rect width="800" height="200" fill="url(#bg-gradient)"/>

  <!-- Decorative code lines in background -->
  <g opacity="0.1" stroke="#8B5CF6" stroke-width="1">
    <line x1="50" y1="30" x2="200" y2="30"/>
    <line x1="70" y1="45" x2="180" y2="45"/>
    <line x1="50" y1="60" x2="150" y2="60"/>
    <line x1="600" y1="140" x2="750" y2="140"/>
    <line x1="620" y1="155" x2="730" y2="155"/>
    <line x1="640" y1="170" x2="750" y2="170"/>
  </g>

  <!-- Floating particles/sparkles -->
  <circle cx="100" cy="150" r="2" fill="#8B5CF6" opacity="0.4"/>
  <circle cx="700" cy="50" r="3" fill="#3B82F6" opacity="0.5"/>
  <circle cx="650" cy="80" r="1.5" fill="#A78BFA" opacity="0.3"/>
  <circle cx="150" cy="40" r="2" fill="#60A5FA" opacity="0.4"/>
  <circle cx="720" cy="160" r="2" fill="#8B5CF6" opacity="0.3"/>

  <!-- Main logo group centered -->
  <g transform="translate(250, 50)">
    <!-- Icon -->
    <rect x="0" y="0" width="100" height="100" rx="20" fill="url(#banner-gradient)"/>

    <!-- Terminal prompt > -->
    <path d="M28 35 L48 50 L28 65" stroke="white" stroke-width="6" stroke-linecap="round" stroke-linejoin="round" fill="none"/>

    <!-- Cursor line -->
    <line x1="54" y1="65" x2="76" y2="65" stroke="white" stroke-width="6" stroke-linecap="round"/>

    <!-- AI sparkles on icon -->
    <circle cx="82" cy="24" r="6" fill="white" opacity="0.9"/>
    <circle cx="92" cy="14" r="3" fill="white" opacity="0.7"/>

    <!-- Text "Codi" -->
    <text x="120" y="68" font-family="system-ui, -apple-system, 'Segoe UI', Roboto, sans-serif" font-size="64" font-weight="700" fill="white">Codi</text>
  </g>

  <!-- Tagline -->
  <text x="400" y="175" text-anchor="middle" font-family="system-ui, -apple-system, 'Segoe UI', Roboto, sans-serif" font-size="18" fill="#9CA3AF">AI-Powered Coding Assistant for Your Terminal</text>
</svg>
