<svg xmlns="http://www.w3.org/2000/svg" viewBox="0 0 1280 640" width="1280" height="640">
  <defs>
    <linearGradient id="social-gradient" x1="0%" y1="0%" x2="100%" y2="100%">
      <stop offset="0%" style="stop-color:#8B5CF6"/>
      <stop offset="50%" style="stop-color:#6366F1"/>
      <stop offset="100%" style="stop-color:#3B82F6"/>
    </linearGradient>
    <linearGradient id="social-bg" x1="0%" y1="0%" x2="100%" y2="100%">
      <stop offset="0%" style="stop-color:#0a0a14"/>
      <stop offset="100%" style="stop-color:#12121f"/>
    </linearGradient>
  </defs>

  <!-- Background -->
  <rect width="1280" height="640" fill="url(#social-bg)"/>

  <!-- Grid pattern -->
  <g opacity="0.03" stroke="#8B5CF6" stroke-width="1">
    <line x1="0" y1="80" x2="1280" y2="80"/>
    <line x1="0" y1="160" x2="1280" y2="160"/>
    <line x1="0" y1="240" x2="1280" y2="240"/>
    <line x1="0" y1="320" x2="1280" y2="320"/>
    <line x1="0" y1="400" x2="1280" y2="400"/>
    <line x1="0" y1="480" x2="1280" y2="480"/>
    <line x1="0" y1="560" x2="1280" y2="560"/>
    <line x1="160" y1="0" x2="160" y2="640"/>
    <line x1="320" y1="0" x2="320" y2="640"/>
    <line x1="480" y1="0" x2="480" y2="640"/>
    <line x1="640" y1="0" x2="640" y2="640"/>
    <line x1="800" y1="0" x2="800" y2="640"/>
    <line x1="960" y1="0" x2="960" y2="640"/>
    <line x1="1120" y1="0" x2="1120" y2="640"/>
  </g>

  <!-- Decorative elements -->
  <g opacity="0.15">
    <!-- Left code block -->
    <rect x="60" y="100" width="300" height="180" rx="8" fill="#1a1a2e" stroke="#8B5CF6" stroke-width="1"/>
    <circle cx="80" cy="120" r="5" fill="#EF4444"/>
    <circle cx="100" cy="120" r="5" fill="#F59E0B"/>
    <circle cx="120" cy="120" r="5" fill="#22C55E"/>
    <line x1="80" y1="150" x2="200" y2="150" stroke="#8B5CF6" stroke-width="2"/>
    <line x1="80" y1="170" x2="280" y2="170" stroke="#3B82F6" stroke-width="2"/>
    <line x1="100" y1="190" x2="240" y2="190" stroke="#8B5CF6" stroke-width="2"/>
    <line x1="100" y1="210" x2="180" y2="210" stroke="#3B82F6" stroke-width="2"/>
    <line x1="80" y1="230" x2="260" y2="230" stroke="#8B5CF6" stroke-width="2"/>
    <line x1="80" y1="250" x2="160" y2="250" stroke="#3B82F6" stroke-width="2"/>

    <!-- Right code block -->
    <rect x="920" y="360" width="300" height="180" rx="8" fill="#1a1a2e" stroke="#3B82F6" stroke-width="1"/>
    <circle cx="940" cy="380" r="5" fill="#EF4444"/>
    <circle cx="960" cy="380" r="5" fill="#F59E0B"/>
    <circle cx="980" cy="380" r="5" fill="#22C55E"/>
    <line x1="940" y1="410" x2="1100" y2="410" stroke="#8B5CF6" stroke-width="2"/>
    <line x1="940" y1="430" x2="1180" y2="430" stroke="#3B82F6" stroke-width="2"/>
    <line x1="960" y1="450" x2="1140" y2="450" stroke="#8B5CF6" stroke-width="2"/>
    <line x1="960" y1="470" x2="1080" y2="470" stroke="#3B82F6" stroke-width="2"/>
    <line x1="940" y1="490" x2="1160" y2="490" stroke="#8B5CF6" stroke-width="2"/>
    <line x1="940" y1="510" x2="1060" y2="510" stroke="#3B82F6" stroke-width="2"/>
  </g>

  <!-- Floating particles -->
  <circle cx="200" cy="450" r="4" fill="#8B5CF6" opacity="0.3"/>
  <circle cx="1100" cy="150" r="5" fill="#3B82F6" opacity="0.4"/>
  <circle cx="1050" cy="200" r="3" fill="#A78BFA" opacity="0.3"/>
  <circle cx="250" cy="350" r="3" fill="#60A5FA" opacity="0.3"/>
  <circle cx="1000" cy="280" r="4" fill="#8B5CF6" opacity="0.2"/>
  <circle cx="300" cy="520" r="3" fill="#3B82F6" opacity="0.3"/>

  <!-- Main logo centered -->
  <g transform="translate(440, 180)">
    <!-- Icon -->
    <rect x="0" y="0" width="140" height="140" rx="28" fill="url(#social-gradient)"/>

    <!-- Terminal prompt > -->
    <path d="M40 48 L68 70 L40 92" stroke="white" stroke-width="8" stroke-linecap="round" stroke-linejoin="round" fill="none"/>

    <!-- Cursor line -->
    <line x1="76" y1="92" x2="108" y2="92" stroke="white" stroke-width="8" stroke-linecap="round"/>

    <!-- AI sparkles -->
    <circle cx="116" cy="32" r="8" fill="white" opacity="0.9"/>
    <circle cx="130" cy="18" r="4" fill="white" opacity="0.7"/>
    <circle cx="104" cy="24" r="3" fill="white" opacity="0.5"/>

    <!-- Text "Codi" -->
    <text x="165" y="95" font-family="system-ui, -apple-system, 'Segoe UI', Roboto, sans-serif" font-size="90" font-weight="700" fill="white">Codi</text>
  </g>

  <!-- Tagline -->
  <text x="640" y="400" text-anchor="middle" font-family="system-ui, -apple-system, 'Segoe UI', Roboto, sans-serif" font-size="28" fill="#9CA3AF">Your AI Coding Wingman for the Terminal</text>

  <!-- Feature pills -->
  <g transform="translate(640, 460)" text-anchor="middle">
    <rect x="-380" y="0" width="140" height="36" rx="18" fill="#1a1a2e" stroke="#8B5CF6" stroke-width="1"/>
    <text x="-310" y="24" font-family="system-ui, sans-serif" font-size="14" fill="#A78BFA">Multi-Provider</text>

    <rect x="-210" y="0" width="120" height="36" rx="18" fill="#1a1a2e" stroke="#6366F1" stroke-width="1"/>
    <text x="-150" y="24" font-family="system-ui, sans-serif" font-size="14" fill="#A78BFA">RAG Search</text>

    <rect x="-60" y="0" width="120" height="36" rx="18" fill="#1a1a2e" stroke="#3B82F6" stroke-width="1"/>
    <text x="0" y="24" font-family="system-ui, sans-serif" font-size="14" fill="#60A5FA">File Tools</text>

    <rect x="90" y="0" width="130" height="36" rx="18" fill="#1a1a2e" stroke="#3B82F6" stroke-width="1"/>
    <text x="155" y="24" font-family="system-ui, sans-serif" font-size="14" fill="#60A5FA">Git Integration</text>

    <rect x="250" y="0" width="120" height="36" rx="18" fill="#1a1a2e" stroke="#8B5CF6" stroke-width="1"/>
    <text x="310" y="24" font-family="system-ui, sans-serif" font-size="14" fill="#A78BFA">Extensible</text>
  </g>

  <!-- URL -->
  <text x="640" y="580" text-anchor="middle" font-family="monospace" font-size="20" fill="#6B7280">github.com/laynepenney/codi</text>
</svg>
